# Blender v3.0.1 OBJ File: 'tilled_soil.blend'
# www.blender.org
mtllib nodes_nature_tilled_soil.mtl
o Cube
v 0.500000 0.500000 -0.500000
v 0.500000 -0.500000 -0.500000
v 0.500000 0.500000 0.500000
v 0.500000 -0.500000 0.500000
v -0.500000 0.500000 -0.500000
v -0.500000 -0.500000 -0.500000
v -0.500000 0.500000 0.500000
v -0.500000 -0.500000 0.500000
v 0.500000 0.500000 -0.323529
v 0.500000 0.500000 -0.147059
v 0.500000 0.500000 0.147059
v 0.500000 0.500000 0.323529
v -0.500000 0.500000 0.323529
v -0.500000 0.500000 0.147059
v -0.500000 0.500000 -0.147059
v -0.500000 0.500000 -0.323529
v 0.500000 0.523811 0.500000
v -0.500000 0.523811 0.500000
v -0.500000 0.523811 -0.500000
v 0.500000 0.523811 -0.500000
v 0.500000 0.523811 -0.323529
v 0.500000 0.523811 -0.147059
v 0.500000 0.523811 0.147059
v 0.500000 0.523811 0.323529
v -0.500000 0.523811 0.323529
v -0.500000 0.523811 0.147059
v -0.500000 0.523811 -0.147059
v -0.500000 0.523811 -0.323529
vt 0.511629 0.988371
vt 0.511629 1.000000
vt 0.597812 1.000000
vt 0.597812 0.988371
vt 1.000000 0.988371
vt 1.000000 1.000000
vt 0.511629 0.500000
vt 1.000000 0.500000
vt 0.913817 0.988371
vt 0.827634 0.988371
vt 0.683995 0.988371
vt 0.597812 0.988371
vt 0.511629 0.988371
vt 0.511629 0.500000
vt 1.000000 0.500000
vt 1.000000 0.988371
vt 0.500000 0.000000
vt 0.000000 0.000000
vt 0.000000 0.500000
vt 0.500000 0.500000
vt 0.913817 0.988371
vt 1.000000 0.988371
vt 1.000000 0.500000
vt 0.683995 0.988371
vt 0.827634 0.988371
vt 0.913817 1.000000
vt 1.000000 1.000000
vt 0.527007 0.988095
vt 1.000000 0.988095
vt 1.000000 1.000000
vt 0.527007 1.000000
vt 0.000000 0.823529
vt 0.500000 0.823529
vt 0.500000 0.911765
vt 0.000000 0.911765
vt 0.000000 0.588235
vt 0.500000 0.588235
vt 0.500000 0.676471
vt 0.000000 0.676471
vt 1.000000 0.988095
vt 0.527007 0.988095
vt 0.527007 1.000000
vt 1.000000 1.000000
vt 0.000000 0.500000
vt 0.500000 0.500000
vt 0.500000 0.588235
vt 0.000000 0.588235
vt 0.000000 0.911765
vt 0.500000 0.911765
vt 0.500000 1.000000
vt 0.000000 1.000000
vt 0.000000 0.676471
vt 0.500000 0.676471
vt 0.500000 0.823529
vt 0.000000 0.823529
vt 0.827634 1.000000
vt 0.683995 1.000000
vt 1.000000 1.000000
vt 0.913817 1.000000
vt 0.597812 1.000000
vt 0.511629 1.000000
vt 1.000000 0.988095
vt 0.527007 0.988095
vt 0.527007 1.000000
vt 1.000000 1.000000
vt 0.683995 1.000000
vt 0.827634 1.000000
vt 0.527007 0.988095
vt 1.000000 0.988095
vt 1.000000 1.000000
vt 0.527007 1.000000
vt 0.511629 0.988371
vt 0.511629 1.000000
vt 0.511629 0.500000
vn -1.0000 0.0000 0.0000
vn 0.0000 0.0000 1.0000
vn 1.0000 0.0000 0.0000
vn 0.0000 -1.0000 0.0000
vn 0.0000 1.0000 0.0000
vn -0.0000 0.0000 -1.0000
usemtl Material
s off
f 7/1/1 18/2/1 25/3/1 13/4/1
f 3/5/2 17/6/2 18/2/2 7/1/2 8/7/2 4/8/2
f 9/9/3 10/10/3 11/11/3 12/12/3 3/13/3 4/14/3 2/15/3 1/16/3
f 4/17/4 8/18/4 6/19/4 2/20/4
f 16/21/1 5/22/1 6/23/1 8/7/1 7/1/1 13/4/1 14/24/1 15/25/1
f 16/21/1 28/26/1 19/27/1 5/22/1
f 16/28/2 9/29/2 21/30/2 28/31/2
f 15/32/5 10/33/5 9/34/5 16/35/5
f 13/36/5 12/37/5 11/38/5 14/39/5
f 12/40/6 13/41/6 25/42/6 24/43/6
f 18/44/5 17/45/5 24/46/5 25/47/5
f 28/48/5 21/49/5 20/50/5 19/51/5
f 26/52/5 23/53/5 22/54/5 27/55/5
f 10/10/3 22/56/3 23/57/3 11/11/3
f 9/9/3 1/16/3 20/58/3 21/59/3
f 3/13/3 12/12/3 24/60/3 17/61/3
f 10/62/6 15/63/6 27/64/6 22/65/6
f 15/25/1 14/24/1 26/66/1 27/67/1
f 14/68/2 11/69/2 23/70/2 26/71/2
f 5/72/6 19/73/6 20/58/6 1/16/6 2/15/6 6/74/6
