# Blender v3.0.1 OBJ File: 'grinding_stone.blend'
# www.blender.org
mtllib grinding_stone.mtl
o Icosphere.001_Icosphere.002
v -0.432032 -0.458613 0.316539
v -0.193485 -0.456762 0.433249
v -0.398975 -0.385229 0.397646
v -0.488207 -0.463760 -0.163775
v -0.463114 -0.462757 0.073328
v -0.557874 -0.386706 -0.075806
v -0.501224 -0.388008 0.209973
v -0.534092 -0.399946 -0.300455
v -0.239750 -0.329082 0.437256
v -0.020447 -0.321451 0.455971
v -0.315682 -0.286799 0.370356
v -0.519213 -0.307370 0.065049
v -0.414302 -0.328695 0.362578
v -0.414817 -0.329331 0.086202
v -0.355384 -0.329431 -0.447375
v -0.512448 -0.304202 -0.157732
v -0.233368 -0.328201 -0.309679
v -0.399711 -0.455778 -0.389620
v -0.375660 -0.474961 -0.059229
v -0.184498 -0.474845 -0.260909
v -0.305429 -0.472348 0.196532
v -0.026676 -0.450878 0.405642
v -0.293353 -0.409346 -0.469888
v -0.121474 -0.378191 0.485248
v 0.092048 -0.331524 0.354009
v -0.063532 -0.329181 -0.006080
v -0.187348 -0.331737 0.141734
v -0.032440 -0.328975 -0.321632
v 0.228082 -0.404269 0.432183
v -0.066593 -0.449908 -0.503310
v -0.144341 -0.332211 0.350067
v -0.140659 -0.389527 -0.501982
v 0.164996 -0.447292 -0.481391
v 0.177103 -0.475267 -0.299582
v 0.230192 -0.329180 0.421254
v 0.103993 -0.381540 -0.512539
v 0.471723 -0.446117 -0.133782
v 0.392900 -0.452737 -0.301991
v 0.482982 -0.381082 -0.244960
v 0.345748 -0.447292 0.354695
v 0.441126 -0.462937 0.084563
v 0.422220 -0.383502 0.289183
v 0.314277 -0.385132 -0.484283
v 0.513743 -0.381722 -0.024269
v -0.074210 -0.339043 -0.442437
v 0.361972 -0.354109 -0.347337
v 0.173997 -0.331764 -0.479884
v 0.203793 -0.329124 -0.255476
v 0.484909 -0.328388 0.073473
v 0.406415 -0.295927 -0.130348
v 0.354674 -0.331856 0.016938
v 0.393080 -0.317645 0.312164
v -0.039266 -0.474633 -0.304194
v 0.061666 -0.398424 0.455292
v 0.124433 -0.327680 0.005956
vt 0.847057 0.891647
vt 0.925869 0.736710
vt 0.896206 0.913355
vt 0.623906 0.853368
vt 0.736002 0.885487
vt 0.649034 0.958731
vt 0.799177 0.967259
vt 0.547194 0.865561
vt 0.072158 0.719926
vt 0.050127 0.550531
vt 0.110018 0.764502
vt 0.240878 0.910000
vt 0.112148 0.841660
vt 0.229830 0.827223
vt 0.450049 0.771942
vt 0.337508 0.901573
vt 0.396380 0.676249
vt 0.546105 0.733407
vt 0.686879 0.785528
vt 0.623057 0.596226
vt 0.809189 0.774820
vt 0.491184 0.749401
vt 0.415159 0.939699
vt 0.513042 0.645447
vt 0.084128 0.855460
vt 0.030224 0.639574
vt 0.979822 0.702599
vt 0.939312 0.596984
vt 0.303214 0.983093
vt 0.170179 0.937025
vt 0.091361 0.447683
vt 0.259057 0.546929
vt 0.198881 0.651770
vt 0.405245 0.506337
vt 0.746365 0.093548
vt 0.839290 0.161050
vt 0.942024 0.283418
vt 0.979002 0.370173
vt 0.620162 0.474198
vt 0.642676 0.303904
vt 0.662370 0.129737
vt 0.532126 0.462991
vt 0.107869 0.634638
vt 0.505071 0.608291
vt 0.558576 0.284649
vt 0.053392 0.340327
vt 0.018235 0.328104
vt 0.519234 0.319479
vt 0.693966 0.035701
vt 0.944153 0.196467
vt 0.561707 0.148706
vt 0.805714 0.049169
vt 0.467539 0.542545
vt 0.405677 0.153364
vt 0.473780 0.319016
vt 0.365125 0.304516
vt 0.188490 0.109779
vt 0.291324 0.139798
vt 0.226083 0.208724
vt 0.094098 0.213672
vt 0.505343 0.516223
vt 0.505071 0.375197
vt 0.348247 0.035701
vt 0.482742 0.187901
vt 0.084051 0.159388
vt 0.224036 0.036582
vt 0.979822 0.525570
vt 0.017078 0.481566
vt 0.245450 0.393958
vn -0.3393 -0.6246 0.7034
vn -0.6946 -0.7154 0.0765
vn -0.8694 -0.1341 0.4756
vn -0.7651 -0.6425 -0.0431
vn -0.0786 0.8000 0.5948
vn 0.2064 0.9785 -0.0026
vn 0.0546 0.9969 -0.0572
vn -0.0488 -0.9973 -0.0544
vn -0.0562 -0.9970 -0.0538
vn -0.0317 -0.9962 0.0806
vn -0.1140 -0.9934 0.0163
vn -0.0872 -0.9956 0.0341
vn -0.0821 -0.9962 0.0275
vn -0.5675 -0.2167 -0.7943
vn -0.5756 -0.0870 -0.8131
vn -0.4971 -0.8381 -0.2244
vn -0.2999 0.1911 0.9346
vn -0.2749 -0.3426 0.8984
vn 0.1477 -0.6364 0.7571
vn -0.9724 0.1306 0.1934
vn -0.7483 -0.6473 0.1454
vn -0.7884 -0.6050 0.1111
vn -0.0893 0.5777 0.8113
vn -0.8539 0.4025 0.3299
vn -0.8770 0.0581 0.4770
vn -0.3560 0.4210 0.8343
vn -0.5944 0.7066 -0.3839
vn -0.9151 0.3851 -0.1196
vn -0.8842 0.4667 -0.0202
vn -0.0085 0.9999 0.0102
vn 0.0039 1.0000 0.0010
vn 0.0287 -0.9987 0.0412
vn -0.2247 -0.6844 -0.6936
vn 0.2046 0.9205 -0.3328
vn -0.2175 0.1045 -0.9704
vn 0.0507 0.9850 -0.1651
vn -0.3909 0.9204 -0.0014
vn -0.3133 0.6009 0.7354
vn 0.0089 0.9999 0.0069
vn 0.1157 0.9917 0.0559
vn 0.2019 0.9792 0.0201
vn 0.0257 -0.9878 -0.1537
vn 0.1401 0.1387 0.9804
vn 0.0921 -0.3553 -0.9302
vn 0.7035 -0.6422 -0.3044
vn 0.7491 -0.5913 0.2987
vn 0.1201 -0.3319 -0.9357
vn 0.9164 -0.3789 -0.1288
vn 0.5786 0.1329 0.8047
vn 0.0348 0.9986 -0.0398
vn 0.1389 0.9899 -0.0301
vn -0.1120 0.9737 0.1982
vn -0.0396 0.9981 0.0465
vn 0.1008 -0.9823 -0.1579
vn -0.0208 -0.9935 -0.1123
vn -0.0003 -0.9924 -0.1232
vn -0.1772 -0.1962 -0.9644
vn -0.0339 -0.9924 -0.1186
vn -0.0522 0.7897 -0.6113
vn -0.0421 -0.0297 -0.9987
vn 0.4749 0.8081 -0.3485
vn 0.7110 -0.5017 -0.4927
vn 0.3356 -0.8268 -0.4514
vn 0.9599 0.0052 0.2803
vn 0.8638 -0.4377 0.2497
vn 0.7841 -0.6176 0.0623
vn 0.3287 0.8900 -0.3161
vn 0.1283 0.4116 -0.9023
vn -0.1304 0.6655 -0.7349
vn 0.7099 0.6849 -0.1643
vn 0.6757 0.7314 -0.0921
vn 0.4533 0.8333 -0.3163
vn 0.5482 0.1053 0.8297
vn 0.5942 -0.0177 0.8041
vn 0.8997 0.2817 0.3334
vn 0.0346 -0.7172 0.6961
vn 0.1782 0.1816 0.9671
vn 0.0371 0.7414 -0.6700
vn 0.0020 1.0000 -0.0049
vn 0.0041 0.9999 -0.0123
vn -0.0397 0.9968 -0.0694
vn 0.0181 0.9998 -0.0000
vn -0.2475 0.9577 0.1467
vn 0.0019 0.9658 -0.2594
vn 0.0175 0.9998 0.0127
vn -0.0517 0.9978 -0.0413
vn -0.0061 0.9989 -0.0473
vn -0.0086 0.9999 0.0102
vn 0.0202 0.9969 -0.0762
vn 0.2504 0.9669 -0.0495
vn -0.0080 1.0000 -0.0001
vn -0.0101 0.9999 0.0089
vn -0.0011 0.9966 -0.0827
vn -0.0012 0.9950 -0.0997
vn -0.0030 1.0000 0.0029
vn 0.0664 -0.7427 0.6664
vn 0.1410 0.1418 0.9798
usemtl None
s off
f 1/1/1 2/2/1 3/3/1
f 4/4/2 5/5/2 6/6/2
f 1/1/3 3/3/3 7/7/3
f 4/4/4 6/6/4 8/8/4
f 9/9/5 10/10/5 11/11/5
f 12/12/6 13/13/6 14/14/6
f 15/15/7 16/16/7 17/17/7
f 18/18/8 19/19/8 4/4/8
f 18/18/9 20/20/9 19/19/9
f 2/2/10 1/1/10 21/21/10
f 19/19/11 5/5/11 4/4/11
f 19/19/12 21/21/12 5/5/12
f 21/21/13 1/1/13 5/5/13
f 23/22/14 8/23/14 15/15/14
f 23/24/15 18/18/15 8/8/15
f 18/18/16 4/4/16 8/8/16
f 3/25/17 24/26/17 9/9/17
f 3/3/18 2/2/18 24/27/18
f 2/2/19 22/28/19 24/27/19
f 6/29/20 7/30/20 12/12/20
f 6/6/21 5/5/21 7/7/21
f 5/5/22 1/1/22 7/7/22
f 24/26/23 10/10/23 9/9/23
f 7/30/24 13/13/24 12/12/24
f 7/30/25 3/25/25 13/13/25
f 3/25/26 9/9/26 13/13/26
f 8/23/27 16/16/27 15/15/27
f 8/23/28 6/29/28 16/16/28
f 6/29/29 12/12/29 16/16/29
f 25/31/30 26/32/30 27/33/30
f 26/32/31 28/34/31 17/17/31
f 37/35/32 41/36/32 40/37/32 29/38/32 22/28/32 2/2/32 21/21/32 19/19/32 20/20/32 53/39/32 34/40/32 38/41/32
f 30/42/33 18/18/33 23/24/33
f 11/11/34 10/10/34 31/43/34
f 23/22/35 15/15/35 32/44/35
f 14/14/36 11/11/36 27/33/36
f 14/14/37 13/13/37 11/11/37
f 13/13/38 9/9/38 11/11/38
f 17/17/39 14/14/39 27/33/39
f 17/17/40 16/16/40 14/14/40
f 16/16/41 12/12/41 14/14/41
f 33/45/42 34/40/42 30/42/42
f 35/46/43 10/10/43 29/47/43
f 33/45/44 30/42/44 36/48/44
f 37/35/45 38/41/45 39/49/45
f 40/37/46 41/36/46 42/50/46
f 33/45/47 36/48/47 43/51/47
f 37/35/48 39/49/48 44/52/48
f 40/37/49 42/50/49 29/38/49
f 15/15/50 17/17/50 45/53/50
f 46/54/51 47/55/51 48/56/51
f 49/57/52 50/58/52 51/59/52
f 35/46/53 52/60/53 25/31/53
f 34/40/54 33/45/54 38/41/54
f 18/18/55 30/42/55 20/20/55
f 30/42/56 34/40/56 53/39/56
f 32/61/57 30/42/57 23/24/57
f 30/42/58 53/39/58 20/20/58
f 36/62/59 32/44/59 45/53/59
f 36/48/60 30/42/60 32/61/60
f 39/63/61 43/64/61 46/54/61
f 39/49/62 38/41/62 43/51/62
f 38/41/63 33/45/63 43/51/63
f 42/65/64 44/66/64 49/57/64
f 42/50/65 41/36/65 44/52/65
f 41/36/66 37/35/66 44/52/66
f 43/64/67 47/55/67 46/54/67
f 43/64/68 36/62/68 47/55/68
f 36/62/69 45/53/69 47/55/69
f 44/66/70 50/58/70 49/57/70
f 44/66/71 39/63/71 50/58/71
f 39/63/72 46/54/72 50/58/72
f 29/47/73 52/60/73 35/46/73
f 29/47/74 42/65/74 52/60/74
f 42/65/75 49/57/75 52/60/75
f 24/27/76 22/28/76 54/67/76
f 10/10/77 24/26/77 54/68/77
f 15/15/78 45/53/78 32/44/78
f 48/56/79 28/34/79 55/69/79
f 48/56/80 47/55/80 28/34/80
f 47/55/81 45/53/81 28/34/81
f 51/59/82 48/56/82 55/69/82
f 51/59/83 50/58/83 48/56/83
f 50/58/84 46/54/84 48/56/84
f 25/31/85 51/59/85 55/69/85
f 25/31/86 52/60/86 51/59/86
f 52/60/87 49/57/87 51/59/87
f 26/32/88 25/31/88 55/69/88
f 10/10/89 35/46/89 25/31/89
f 11/11/90 31/43/90 27/33/90
f 28/34/91 26/32/91 55/69/91
f 27/33/92 26/32/92 17/17/92
f 45/53/93 17/17/93 28/34/93
f 10/10/94 25/31/94 31/43/94
f 31/43/95 25/31/95 27/33/95
f 22/28/96 29/38/96 54/67/96
f 29/47/97 10/10/97 54/68/97
o Icosphere.001_Icosphere.001
v -0.262623 -0.329139 -0.156760
v -0.285154 -0.327557 -0.065857
v -0.277763 -0.266429 -0.144302
v -0.173513 -0.333537 -0.177198
v -0.217491 -0.332681 -0.168116
v -0.189521 -0.267691 -0.204007
v -0.242631 -0.268803 -0.182971
v -0.148038 -0.279004 -0.194437
v -0.285714 -0.218447 -0.083545
v -0.290034 -0.211926 0.000213
v -0.273037 -0.182314 -0.112416
v -0.215740 -0.199894 -0.189535
v -0.271213 -0.218117 -0.150084
v -0.220062 -0.180235 -0.149689
v -0.121545 -0.218745 -0.125836
v -0.174536 -0.197187 -0.186473
v -0.147505 -0.179269 -0.079507
v -0.132061 -0.326717 -0.142898
v -0.193300 -0.343110 -0.134415
v -0.156721 -0.343010 -0.060938
v -0.240907 -0.340876 -0.108126
v -0.252565 -0.343142 -0.009257
v -0.280695 -0.322529 -0.002059
v -0.117621 -0.287037 -0.102085
v -0.295058 -0.260414 -0.038453
v -0.271603 -0.182109 0.043418
v -0.204354 -0.180106 -0.015261
v -0.231227 -0.182291 -0.062889
v -0.146077 -0.179930 -0.002704
v -0.272463 -0.324118 0.061514
v -0.286602 -0.282699 0.095231
v -0.112320 -0.321700 -0.015366
v -0.269951 -0.182696 -0.046901
v -0.112277 -0.270102 -0.043670
v -0.117281 -0.319465 0.073081
v -0.150975 -0.343371 0.077318
v -0.284587 -0.218531 0.096061
v -0.111278 -0.263276 0.049837
v -0.182810 -0.318460 0.189541
v -0.151372 -0.324118 0.159782
v -0.162278 -0.262885 0.194082
v -0.272720 -0.319465 0.140359
v -0.223099 -0.332834 0.177383
v -0.260894 -0.264952 0.169720
v -0.117328 -0.266345 0.130129
v -0.203241 -0.263431 0.205363
v -0.123556 -0.226960 -0.018407
v -0.142859 -0.201409 0.148061
v -0.117595 -0.220739 0.076517
v -0.159242 -0.180058 0.087423
v -0.221218 -0.217854 0.194137
v -0.183190 -0.190114 0.164579
v -0.210246 -0.182392 0.144493
v -0.265034 -0.208674 0.158536
v -0.187639 -0.340225 0.138678
v -0.149277 -0.342829 -0.005350
v -0.252786 -0.343100 0.074517
v -0.290229 -0.277704 0.031592
v -0.207315 -0.178823 0.056538
v -0.200804 -0.342610 0.004585
vt 0.847493 0.621538
vt 0.868058 0.572173
vt 0.870451 0.648624
vt 0.810961 0.619395
vt 0.828952 0.622782
vt 0.808915 0.672556
vt 0.842301 0.670869
vt 0.788602 0.644532
vt 0.753602 0.469914
vt 0.749373 0.530012
vt 0.739722 0.453021
vt 0.725029 0.400309
vt 0.747500 0.425229
vt 0.723334 0.426231
vt 0.681202 0.414684
vt 0.710103 0.397895
vt 0.689873 0.455840
vt 0.797427 0.593962
vt 0.822485 0.596117
vt 0.814034 0.543025
vt 0.843845 0.588042
vt 0.860360 0.525414
vt 0.876580 0.527203
vt 0.651067 0.399976
vt 0.692733 0.342162
vt 0.779239 0.568228
vt 0.768307 0.415587
vt 0.772677 0.504410
vt 0.900180 0.569181
vt 0.719627 0.347616
vt 0.751839 0.371782
vt 0.731104 0.554434
vt 0.706794 0.506782
vt 0.721401 0.479081
vt 0.680570 0.506752
vt 0.878626 0.477277
vt 0.900180 0.452181
vt 0.795666 0.503340
vt 0.736597 0.493586
vt 0.642722 0.454675
vt 0.807152 0.441276
vt 0.824818 0.448095
vt 0.737925 0.596941
vt 0.764525 0.621437
vt 0.779761 0.441705
vt 0.848814 0.381575
vt 0.833335 0.393753
vt 0.837592 0.342162
vt 0.880748 0.422661
vt 0.862579 0.397659
vt 0.894357 0.382032
vt 0.802009 0.380798
vt 0.863115 0.343433
vt 0.659421 0.486280
vt 0.671226 0.612511
vt 0.655633 0.563098
vt 0.681106 0.571473
vt 0.702363 0.649967
vt 0.687894 0.623444
vt 0.699680 0.611869
vt 0.721125 0.630448
vt 0.845783 0.415621
vt 0.815585 0.503538
vt 0.867332 0.465372
vt 0.772949 0.519997
vt 0.635680 0.540021
vt 0.668413 0.672141
vt 0.638860 0.615009
vt 0.730664 0.669802
vt 0.691803 0.685644
vt 0.899105 0.505557
vt 0.772677 0.567549
vt 0.703238 0.555265
vt 0.838937 0.505852
vn -0.5903 -0.6131 -0.5250
vn -0.8031 -0.5914 -0.0729
vn -0.9074 -0.0266 -0.4194
vn 0.1782 -0.7537 -0.6326
vn -0.2069 -0.7511 -0.6269
vn -0.0587 -0.0855 -0.9946
vn -0.5288 -0.0787 -0.8451
vn 0.6138 -0.1003 -0.7831
vn -0.9777 0.1646 -0.1306
vn -0.9535 0.3008 0.0185
vn -0.6207 0.7526 -0.2200
vn -0.2886 0.5462 -0.7864
vn -0.7882 0.3091 -0.5322
vn -0.1619 0.9404 -0.2992
vn 0.8906 0.3724 -0.2610
vn 0.3620 0.6397 -0.6781
vn 0.4881 0.8714 -0.0492
vn 0.7334 -0.6070 -0.3060
vn 0.0328 -0.9913 -0.1272
vn 0.2345 -0.9716 -0.0325
vn -0.1906 -0.9790 -0.0729
vn -0.2875 -0.9576 0.0175
vn -0.8337 -0.5478 0.0698
vn 0.9805 -0.0782 -0.1803
vn -0.9992 -0.0195 -0.0361
vn -0.5441 0.8366 0.0631
vn -0.0275 0.9995 -0.0131
vn -0.0284 0.9996 0.0018
vn 0.5205 0.8538 -0.0118
vn -0.8153 -0.5767 0.0516
vn -0.9820 -0.1214 0.1450
vn 0.8592 -0.5108 -0.0273
vn -0.4470 0.8944 0.0147
vn 0.9955 0.0892 -0.0336
vn 0.8590 -0.4946 0.1325
vn 0.3022 -0.9493 0.0869
vn -0.9489 0.2628 0.1748
vn 0.9981 0.0607 0.0147
vn 0.2474 -0.5694 0.7840
vn 0.6059 -0.6394 0.4733
vn 0.5457 0.0786 0.8343
vn -0.7855 -0.4965 0.3695
vn -0.2698 -0.7290 0.6291
vn -0.7573 -0.0557 0.6507
vn 0.9365 -0.0188 0.3503
vn -0.0833 0.0240 0.9962
vn 0.9366 0.3497 -0.0213
vn 0.6728 0.5945 0.4404
vn 0.9091 0.4105 0.0717
vn 0.3712 0.9248 0.0834
vn -0.1764 0.4448 0.8781
vn 0.2158 0.7842 0.5817
vn -0.1246 0.9486 0.2909
vn -0.7064 0.5034 0.4976
vn 0.1087 -0.9745 0.1962
vn 0.2670 -0.9636 -0.0149
vn -0.3693 -0.9281 0.0473
vn -0.9934 -0.1049 0.0463
vn -0.0220 0.9997 0.0117
vn -0.0030 -1.0000 -0.0006
usemtl None.001
s 1
f 56/70/98 57/71/99 58/72/100
f 59/73/101 60/74/102 61/75/103
f 56/70/98 58/72/100 62/76/104
f 59/73/101 61/75/103 63/77/105
f 64/78/106 65/79/107 66/80/108
f 67/81/109 68/82/110 69/83/111
f 70/84/112 71/85/113 72/86/114
f 73/87/115 74/88/116 59/73/101
f 73/87/115 75/89/117 74/88/116
f 57/71/99 56/70/98 76/90/118
f 76/90/118 77/91/119 57/71/99
f 77/91/119 78/92/120 57/71/99
f 74/88/116 60/74/102 59/73/101
f 74/88/116 76/90/118 60/74/102
f 76/90/118 56/70/98 60/74/102
f 79/93/121 63/94/105 70/84/112
f 79/95/121 73/87/115 63/77/105
f 73/87/115 59/73/101 63/77/105
f 58/96/100 80/97/122 64/78/106
f 58/72/100 57/71/99 80/98/122
f 57/71/99 78/92/120 80/98/122
f 61/99/103 62/100/104 67/81/109
f 61/75/103 60/74/102 62/76/104
f 60/74/102 56/70/98 62/76/104
f 80/97/122 65/79/107 64/78/106
f 62/100/104 68/82/110 67/81/109
f 62/100/104 58/96/100 68/82/110
f 58/96/100 64/78/106 68/82/110
f 63/94/105 71/85/113 70/84/112
f 63/94/105 61/99/103 71/85/113
f 61/99/103 67/81/109 71/85/113
f 81/101/123 82/102/124 83/103/125
f 82/102/124 84/104/126 72/86/114
f 78/92/120 85/105/127 86/106/128
f 87/107/129 73/87/115 79/95/121
f 66/80/108 65/79/107 88/108/130
f 79/93/121 70/84/112 89/109/131
f 69/83/111 66/80/108 83/103/125
f 69/83/111 68/82/110 66/80/108
f 68/82/110 64/78/106 66/80/108
f 72/86/114 69/83/111 83/103/125
f 72/86/114 71/85/113 69/83/111
f 71/85/113 67/81/109 69/83/111
f 90/110/132 91/111/133 87/107/129
f 92/112/134 65/79/107 86/113/128
f 90/110/132 87/107/129 93/114/135
f 94/115/136 95/116/137 96/117/138
f 97/118/139 98/119/140 99/120/141
f 78/92/120 77/91/119 85/105/127
f 90/110/132 93/114/135 100/121/142
f 94/115/136 96/117/138 101/122/143
f 97/118/139 99/120/141 86/106/128
f 70/84/112 72/86/114 102/123/144
f 103/124/145 104/125/146 105/126/147
f 106/127/148 107/128/149 108/129/150
f 92/112/134 109/130/151 81/101/123
f 110/131/152 95/116/137 94/115/136
f 110/131/152 91/111/133 95/116/137
f 91/111/133 90/110/132 95/116/137
f 73/87/115 87/107/129 75/89/117
f 87/107/129 91/111/133 111/132/153
f 112/133/154 98/119/140 97/118/139
f 112/133/154 110/131/152 98/119/140
f 110/131/152 94/115/136 98/119/140
f 89/134/131 87/107/129 79/95/121
f 87/107/129 111/132/153 75/89/117
f 112/133/154 97/118/139 85/105/127
f 93/135/135 89/109/131 102/123/144
f 93/114/135 87/107/129 89/134/131
f 96/136/138 100/137/142 103/124/145
f 96/117/138 95/116/137 100/121/142
f 95/116/137 90/110/132 100/121/142
f 99/138/141 101/139/143 106/127/148
f 99/120/141 98/119/140 101/122/143
f 98/119/140 94/115/136 101/122/143
f 77/91/119 112/133/154 85/105/127
f 85/105/127 97/118/139 86/106/128
f 100/137/142 104/125/146 103/124/145
f 100/137/142 93/135/135 104/125/146
f 93/135/135 102/123/144 104/125/146
f 101/139/143 107/128/149 106/127/148
f 101/139/143 96/136/138 107/128/149
f 96/136/138 103/124/145 107/128/149
f 86/113/128 109/130/151 92/112/134
f 86/113/128 99/138/141 109/130/151
f 99/138/141 106/127/148 109/130/151
f 80/98/122 78/92/120 113/140/155
f 65/79/107 80/97/122 113/141/155
f 70/84/112 102/123/144 89/109/131
f 105/126/147 84/104/126 114/142/156
f 105/126/147 104/125/146 84/104/126
f 104/125/146 102/123/144 84/104/126
f 108/129/150 105/126/147 114/142/156
f 108/129/150 107/128/149 105/126/147
f 107/128/149 103/124/145 105/126/147
f 81/101/123 108/129/150 114/142/156
f 81/101/123 109/130/151 108/129/150
f 109/130/151 106/127/148 108/129/150
f 82/102/124 81/101/123 114/142/156
f 65/79/107 92/112/134 81/101/123
f 66/80/108 88/108/130 83/103/125
f 84/104/126 82/102/124 114/142/156
f 83/103/125 82/102/124 72/86/114
f 102/123/144 72/86/114 84/104/126
f 77/91/119 76/90/118 115/143/157
f 76/90/118 74/88/116 115/143/157
f 74/88/116 75/89/117 115/143/157
f 75/89/117 111/132/153 115/143/157
f 111/132/153 91/111/133 115/143/157
f 91/111/133 110/131/152 115/143/157
f 110/131/152 112/133/154 115/143/157
f 112/133/154 77/91/119 115/143/157
f 65/79/107 81/101/123 88/108/130
f 88/108/130 81/101/123 83/103/125
f 78/92/120 86/106/128 113/140/155
f 86/113/128 65/79/107 113/141/155
