# Blender v3.0.1 OBJ File: 'hammer.blend'
# www.blender.org
mtllib hammer_placed.mtl
o Cube.001
v -0.291459 -0.455242 0.350979
v -0.291459 -0.384758 0.350979
v -0.341575 -0.455242 0.302481
v -0.341575 -0.384758 0.302481
v 0.342887 -0.455242 -0.304522
v 0.342887 -0.384758 -0.304522
v 0.292772 -0.455242 -0.353020
v 0.292772 -0.384758 -0.353020
v -0.145101 -0.455242 0.099456
v -0.145101 -0.384758 0.099456
v -0.094986 -0.455242 0.147954
v -0.094986 -0.384758 0.147954
v -0.305639 -0.455242 0.265347
v -0.255524 -0.384758 0.313845
v -0.305639 -0.384758 0.265347
v -0.255524 -0.455242 0.313845
v -0.349361 -0.320606 0.218381
v -0.196467 -0.320606 0.060388
v -0.207149 -0.519395 0.356004
v -0.054255 -0.519395 0.198011
v -0.054255 -0.320606 0.198011
v -0.196467 -0.519395 0.060388
v -0.349361 -0.519395 0.218381
v -0.207149 -0.320606 0.356004
v -0.070622 -0.384758 0.122777
v -0.120737 -0.455242 0.074279
v -0.070622 -0.455242 0.122777
v -0.120737 -0.384758 0.074279
v -0.273009 -0.455242 0.331913
v -0.323124 -0.384758 0.283415
v -0.273009 -0.384758 0.331913
v -0.323124 -0.455242 0.283415
v -0.368209 -0.456543 0.112679
v -0.366751 -0.519395 0.201552
v -0.366751 -0.320606 0.201552
v -0.368209 -0.383457 0.112679
v -0.213857 -0.320606 0.043559
v -0.302730 -0.383457 0.045017
v -0.213857 -0.519395 0.043559
v -0.302730 -0.456543 0.045017
v -0.035408 -0.456543 0.303713
v -0.036865 -0.519395 0.214839
v -0.036865 -0.320606 0.214839
v -0.035408 -0.383457 0.303713
v -0.189759 -0.320606 0.372832
v -0.100886 -0.383457 0.371375
v -0.189759 -0.519395 0.372832
v -0.100886 -0.456543 0.371375
v -0.127896 -0.465204 0.067352
v -0.152260 -0.465204 0.092528
v -0.063463 -0.374796 0.129705
v -0.087827 -0.374796 0.154881
v -0.152260 -0.374796 0.092528
v -0.087827 -0.465204 0.154881
v -0.330283 -0.374796 0.276488
v -0.312798 -0.374796 0.258419
v -0.265850 -0.465204 0.338841
v -0.248365 -0.465204 0.320772
v -0.312798 -0.465204 0.258419
v -0.248365 -0.374796 0.320772
v -0.330283 -0.465204 0.276488
v -0.265850 -0.374796 0.338841
v -0.127896 -0.374796 0.067352
v -0.063463 -0.465204 0.129705
vt 0.165640 0.016526
vt 0.165640 0.170688
vt 0.013105 0.170688
vt 0.013105 0.016526
vt 0.566875 0.090398
vt 0.667326 0.090398
vt 0.667326 0.937826
vt 0.566875 0.937826
vt 0.170149 0.017341
vt 0.170149 0.171503
vt 0.017614 0.171503
vt 0.017614 0.017341
vt 0.952236 0.643403
vt 0.952236 0.743854
vt 0.914424 0.743854
vt 0.914424 0.643403
vt 0.966557 0.090398
vt 0.966557 0.937826
vt 0.867167 0.937826
vt 0.867167 0.090398
vt 0.841224 0.648290
vt 0.879036 0.648290
vt 0.879036 0.747680
vt 0.841224 0.747680
vt 0.472467 0.355151
vt 0.372016 0.355151
vt 0.357819 0.340954
vt 0.486664 0.340954
vt 0.480791 0.864119
vt 0.480791 0.892990
vt 0.243618 0.892990
vt 0.243618 0.864119
vt 0.311979 0.795757
vt 0.412429 0.795757
vt 0.372016 0.227367
vt 0.372016 0.326757
vt 0.357819 0.340954
vt 0.357819 0.213170
vt 0.243618 0.628006
vt 0.243618 0.599134
vt 0.480791 0.599134
vt 0.480791 0.628006
vt 0.412429 0.696367
vt 0.311979 0.696367
vt 0.369132 0.351644
vt 0.369132 0.451034
vt 0.354935 0.465231
vt 0.354935 0.337447
vt 0.372016 0.454541
vt 0.357819 0.468738
vt 0.841224 0.776073
vt 0.879036 0.776073
vt 0.879036 0.875463
vt 0.841224 0.875463
vt 0.314440 0.698554
vt 0.314440 0.797944
vt 0.246078 0.866306
vt 0.246078 0.630193
vt 0.022977 0.707858
vt 0.022977 0.678986
vt 0.285290 0.678986
vt 0.285290 0.707858
vt 0.285290 0.943970
vt 0.285290 0.972842
vt 0.022977 0.972842
vt 0.022977 0.943970
vt 0.469583 0.351644
vt 0.483780 0.337447
vt 0.414890 0.797944
vt 0.414890 0.698554
vt 0.483251 0.630193
vt 0.483251 0.866306
vt 0.246078 0.601321
vt 0.483251 0.601321
vt 0.472467 0.454541
vt 0.486664 0.468738
vt 0.301947 0.873313
vt 0.214749 0.873313
vt 0.214749 0.760975
vt 0.301947 0.760975
vt 0.472467 0.326757
vt 0.486664 0.340954
vt 0.472467 0.227367
vt 0.486664 0.213170
vt 0.483251 0.895177
vt 0.246078 0.895177
vt 0.285290 0.940189
vt 0.285290 0.969060
vt 0.022977 0.969060
vt 0.022977 0.940189
vt 0.022977 0.704076
vt 0.022977 0.675204
vt 0.285290 0.675204
vt 0.285290 0.704076
vt 0.208940 0.735532
vt 0.121742 0.735532
vt 0.121742 0.623194
vt 0.208940 0.623194
vt 0.767776 0.937826
vt 0.667326 0.937826
vt 0.667326 0.090398
vt 0.767776 0.090398
vt 0.767776 0.937826
vt 0.767776 0.090398
vt 0.867167 0.090398
vt 0.867166 0.937826
vt 0.373417 0.207296
vt 0.475483 0.207296
vt 0.475483 0.468506
vt 0.373417 0.468506
vt 0.376935 0.948300
vt 0.139762 0.948300
vt 0.139762 0.685987
vt 0.318605 0.524147
vt 0.405803 0.524147
vt 0.376935 0.685987
vt 0.405803 0.967978
vt 0.318605 0.967978
vt 0.046755 0.810520
vt 0.046755 0.548207
vt 0.283928 0.548207
vt 0.283928 0.810520
vt 0.879036 0.519445
vt 0.879036 0.619896
vt 0.841224 0.619896
vt 0.841224 0.519445
vt 0.260367 0.466720
vt 0.260367 0.203342
vt 0.362433 0.203342
vt 0.362433 0.466720
vt 0.363000 0.183237
vt 0.363000 0.446615
vt 0.289751 0.446615
vt 0.289751 0.183237
vt 0.383053 0.201608
vt 0.456302 0.201608
vt 0.456302 0.462817
vt 0.383053 0.462817
vt 0.270064 0.205017
vt 0.372130 0.205017
vt 0.372130 0.466227
vt 0.270064 0.466227
vt 0.482865 0.197379
vt 0.482865 0.460757
vt 0.380800 0.460757
vt 0.380799 0.197379
vt 0.363000 0.183237
vt 0.436250 0.183237
vt 0.436250 0.444447
vt 0.363000 0.444447
vt 0.461224 0.184308
vt 0.461224 0.447686
vt 0.387974 0.447686
vt 0.387974 0.184308
vt 0.469583 0.451034
vt 0.483780 0.465231
vt 0.469583 0.323251
vt 0.469583 0.223861
vt 0.483780 0.209664
vt 0.483780 0.337447
vt 0.369132 0.223861
vt 0.354935 0.209664
vt 0.369132 0.323251
vt 0.354935 0.337447
vn -0.6954 0.0000 0.7186
vn -0.7186 0.0000 -0.6954
vn 0.6954 0.0000 -0.7186
vn 0.7186 0.0000 0.6954
vn 0.0000 -1.0000 0.0000
vn 0.0000 1.0000 -0.0000
vn 0.7483 -0.0000 -0.6634
vn 0.6385 -0.0000 -0.7696
vn -0.6945 0.0521 0.7176
vn 0.6905 0.1183 -0.7136
vn -0.6945 -0.0521 0.7176
vn -0.7191 0.0000 0.6949
vn 0.6905 -0.1183 -0.7136
vn -0.6710 0.0000 0.7415
vn -0.9999 0.0000 0.0164
vn -0.5081 0.7071 -0.4917
vn -0.0164 0.0000 -0.9999
vn -0.5081 -0.7071 -0.4917
vn 0.9999 0.0000 -0.0164
vn 0.5081 0.7071 0.4917
vn 0.0164 0.0000 0.9999
vn 0.5081 -0.7071 0.4917
usemtl None
s off
f 1/1/1 2/2/1 4/3/1 3/4/1
f 26/5/2 28/6/2 8/7/2 7/8/2
f 7/9/3 8/10/3 6/11/3 5/12/3
f 29/13/4 31/14/4 2/15/4 1/16/4
f 26/17/5 7/18/5 5/19/5 27/20/5
f 30/21/6 4/22/6 2/23/6 31/24/6
f 12/25/1 11/26/1 54/27/1 52/28/1
f 21/29/7 43/30/7 42/31/7 20/32/7 11/33/7 12/34/7
f 26/35/3 27/36/3 64/37/3 49/38/3
f 22/39/8 39/40/8 37/41/8 18/42/8 10/43/8 9/44/8
f 13/45/3 16/46/3 58/47/3 59/48/3
f 11/26/1 9/49/1 50/50/1 54/27/1
f 3/51/5 32/52/5 29/53/5 1/54/5
f 15/55/9 14/56/9 24/57/9 17/58/9
f 23/59/5 34/60/5 39/61/5 22/62/5 20/63/5 42/64/5 47/65/5 19/66/5
f 15/67/3 13/45/3 59/48/3 56/68/3
f 12/34/10 10/43/10 18/42/10 21/29/10
f 16/69/11 13/70/11 23/71/11 19/72/11
f 17/58/12 35/73/12 34/74/12 23/71/12 13/70/12 15/55/12
f 9/44/13 11/33/13 20/32/13 22/39/13
f 10/75/1 12/25/1 52/28/1 53/76/1
f 33/77/2 36/78/2 38/79/2 40/80/2
f 27/36/3 25/81/3 51/82/3 64/37/3
f 28/83/3 26/35/3 49/38/3 63/84/3
f 19/72/14 47/85/14 45/86/14 24/57/14 14/56/14 16/69/14
f 24/87/6 45/88/6 43/89/6 21/90/6 18/91/6 37/92/6 35/93/6 17/94/6
f 41/95/4 44/96/4 46/97/4 48/98/4
f 5/99/4 6/100/4 25/101/4 27/102/4
f 8/103/6 28/104/6 25/105/6 6/106/6
f 63/107/6 53/108/6 52/109/6 51/110/6
f 36/78/15 33/77/15 34/111/15 35/112/15
f 38/79/16 36/78/16 35/112/16 37/113/16
f 40/114/17 38/115/17 37/41/17 39/40/17
f 33/77/18 40/80/18 39/116/18 34/111/18
f 44/117/19 41/118/19 42/31/19 43/30/19
f 46/97/20 44/96/20 43/119/20 45/120/20
f 48/98/21 46/97/21 45/120/21 47/121/21
f 41/95/22 48/98/22 47/121/22 42/122/22
f 3/123/2 4/124/2 30/125/2 32/126/2
f 64/127/4 51/128/4 52/129/4 54/130/4
f 61/131/2 55/132/2 56/133/2 59/134/2
f 61/135/5 59/136/5 58/137/5 57/138/5
f 50/139/5 49/140/5 64/141/5 54/142/5
f 50/143/2 53/144/2 63/145/2 49/146/2
f 56/147/6 55/148/6 62/149/6 60/150/6
f 58/151/4 60/152/4 62/153/4 57/154/4
f 14/155/3 15/67/3 56/68/3 60/156/3
f 9/49/1 10/75/1 53/76/1 50/50/1
f 30/157/1 31/158/1 62/159/1 55/160/1
f 16/46/3 14/155/3 60/156/3 58/47/3
f 25/81/3 28/83/3 63/84/3 51/82/3
f 31/158/1 29/161/1 57/162/1 62/159/1
f 29/161/1 32/163/1 61/164/1 57/162/1
f 32/163/1 30/157/1 55/160/1 61/164/1
