# Blender v3.0.1 OBJ File: 'hoe.blend'
# www.blender.org
mtllib hoe_placed.mtl
o Cube.001
v 0.314882 -0.482825 0.400186
v 0.307027 -0.405027 0.404774
v -0.292879 -0.505856 -0.249764
v -0.300734 -0.428058 -0.245176
v 0.368905 -0.474373 0.349370
v 0.361050 -0.396576 0.353959
v -0.238856 -0.497405 -0.300580
v -0.246711 -0.419607 -0.295992
v 0.274690 -0.484348 0.357204
v 0.266835 -0.406550 0.361792
v 0.328713 -0.475897 0.306388
v 0.320858 -0.398099 0.310977
v 0.221110 -0.408283 0.312893
v 0.282988 -0.477629 0.257489
v 0.228965 -0.486081 0.308304
v 0.275133 -0.399832 0.262077
v 0.258078 -0.499829 0.374473
v 0.247361 -0.393678 0.380734
v 0.325013 -0.478780 0.297845
v 0.316242 -0.391909 0.302968
v 0.199111 -0.395507 0.329135
v 0.290017 -0.480106 0.260420
v 0.209829 -0.501657 0.322874
v 0.281246 -0.393236 0.265543
v 0.273646 -0.383847 0.259025
v 0.321895 -0.382018 0.310624
v 0.332613 -0.488169 0.304363
v 0.284364 -0.489997 0.252765
v 0.452174 -0.365431 0.086707
v 0.446171 -0.367673 0.114448
v 0.454942 -0.454543 0.109324
v 0.460945 -0.452301 0.081584
v 0.336768 -0.345083 0.234396
v 0.353648 -0.512275 0.224536
v 0.376956 -0.511392 0.249462
v 0.360075 -0.344200 0.259322
vt 0.964316 0.242194
vt 0.964316 0.320222
vt 0.035231 0.320221
vt 0.035231 0.242194
vt 0.940049 0.838631
vt 0.940049 0.941038
vt 0.842456 0.941038
vt 0.842456 0.838631
vt 0.665314 0.289821
vt 0.562907 0.289821
vt 0.562907 0.212859
vt 0.665314 0.212859
vt 0.839995 0.940839
vt 0.839995 0.838433
vt 0.937589 0.838433
vt 0.937589 0.940839
vt 0.560856 0.111829
vt 0.658450 0.111829
vt 0.658450 0.188791
vt 0.560856 0.188791
vt 0.730439 0.224127
vt 0.828033 0.224127
vt 0.828033 0.301089
vt 0.730439 0.301089
vt 0.073022 0.585090
vt 0.073022 0.482684
vt 0.088028 0.467678
vt 0.088028 0.600096
vt 0.168323 0.614752
vt 0.168323 0.712345
vt 0.153317 0.727351
vt 0.153317 0.599746
vt 0.444241 0.592206
vt 0.444241 0.689800
vt 0.429235 0.704805
vt 0.429235 0.577201
vt 0.776248 0.179085
vt 0.673841 0.179085
vt 0.673841 0.102124
vt 0.776248 0.102124
vt 0.964313 0.163597
vt 0.964313 0.241624
vt 0.035231 0.241624
vt 0.035231 0.163597
vt 0.035231 0.088096
vt 0.035231 0.013736
vt 0.964310 0.013736
vt 0.964310 0.088097
vt 0.035231 0.163027
vt 0.035231 0.088667
vt 0.964314 0.088667
vt 0.964314 0.163026
vt 0.493921 0.854418
vt 0.493921 0.752012
vt 0.508927 0.737006
vt 0.508927 0.869423
vt 0.275406 0.577201
vt 0.403011 0.577201
vt 0.403010 0.664757
vt 0.275406 0.664757
vt 0.444988 0.501054
vt 0.572593 0.501054
vt 0.572593 0.588611
vt 0.444988 0.588611
vt 0.403366 0.593387
vt 0.403366 0.384823
vt 0.631525 0.434921
vt 0.631525 0.543288
vt 0.493173 0.737006
vt 0.493173 0.869424
vt 0.405616 0.869424
vt 0.405616 0.737006
vt 0.403758 0.689800
vt 0.403758 0.592206
vt 0.418764 0.577201
vt 0.418764 0.704805
vt 0.153317 0.583993
vt 0.153317 0.486399
vt 0.168323 0.471394
vt 0.168323 0.598998
vt 0.509674 0.854418
vt 0.509674 0.752012
vt 0.524680 0.737006
vt 0.524680 0.869423
vt 0.088776 0.585090
vt 0.088776 0.482684
vt 0.103782 0.467678
vt 0.103782 0.600096
vt 0.581259 0.851752
vt 0.581259 0.788247
vt 0.593285 0.776221
vt 0.593285 0.863778
vt 0.153317 0.848491
vt 0.153317 0.740125
vt 0.165343 0.728099
vt 0.165343 0.860517
vt 0.581259 0.940057
vt 0.581259 0.876552
vt 0.593285 0.864526
vt 0.593285 0.952083
vt 0.525428 0.857398
vt 0.525428 0.749031
vt 0.537454 0.737006
vt 0.537454 0.869424
vt 0.209253 0.782751
vt 0.209253 0.674384
vt 0.244529 0.674384
vt 0.244529 0.782751
vt 0.608148 0.594135
vt 0.608148 0.802699
vt 0.403366 0.752600
vt 0.403366 0.644234
vt 0.152569 0.715144
vt 0.111962 0.703310
vt 0.139915 0.471394
vt 0.152569 0.504322
vt 0.111962 0.727725
vt 0.152569 0.715891
vt 0.152569 0.926713
vt 0.139916 0.959641
vt 0.548143 0.730574
vt 0.548143 0.667068
vt 0.644929 0.667943
vt 0.644929 0.710239
vt 0.133784 0.403425
vt 0.133784 0.466931
vt 0.036998 0.446596
vt 0.036998 0.404300
vt 0.361425 0.526354
vt 0.361425 0.417987
vt 0.444241 0.367888
vt 0.444241 0.576453
vt 0.275406 0.526354
vt 0.275406 0.417987
vt 0.360677 0.367888
vt 0.360677 0.576453
vn -0.7237 -0.1132 0.6807
vn -0.6828 -0.0259 -0.7302
vn 0.7237 0.1132 -0.6807
vn 0.6828 0.0259 0.7302
vn 0.1003 -0.9932 -0.0586
vn -0.1003 0.9932 0.0586
vn 0.7069 0.0297 0.7067
vn -0.6882 0.1908 -0.6999
vn 0.6872 -0.0284 0.7259
vn -0.5989 -0.0132 -0.8007
vn -0.7901 -0.0437 -0.6114
vn 0.6744 0.0935 0.7325
vn -0.6545 -0.2001 -0.7291
vn -0.9946 -0.0986 -0.0317
vn 0.4392 -0.0086 0.8983
vn 0.9724 0.0854 0.2173
vn 0.8623 0.0574 0.5031
vn 0.3624 -0.9210 -0.1429
vn 0.1700 0.9850 -0.0304
vn -0.4604 0.7912 0.4025
vn -0.2888 -0.9084 0.3023
vn 0.6904 0.0271 0.7229
vn -0.4905 0.0019 -0.8714
usemtl Material.001
s off
f 15/1/1 13/2/1 4/3/1 3/4/1
f 3/5/2 4/6/2 8/7/2 7/8/2
f 11/9/3 12/10/3 6/11/3 5/12/3
f 5/13/4 6/14/4 2/15/4 1/16/4
f 9/17/5 11/18/5 5/19/5 1/20/5
f 12/21/6 10/22/6 2/23/6 6/24/6
f 9/25/7 10/26/7 18/27/7 17/28/7
f 15/29/8 14/30/8 28/31/8 23/32/8
f 10/33/9 12/34/9 26/35/9 18/36/9
f 1/37/1 2/38/1 10/39/1 9/40/1
f 7/41/3 8/42/3 16/43/3 14/44/3
f 3/45/5 7/46/5 14/47/5 15/48/5
f 8/49/6 4/50/6 13/51/6 16/52/6
f 13/53/10 15/54/10 23/55/10 21/56/10
f 25/57/6 21/58/6 18/59/6 26/60/6
f 23/61/5 28/62/5 27/63/5 17/64/5
f 34/65/11 33/66/11 29/67/11 32/68/11
f 17/69/1 18/70/1 21/71/1 23/72/1
f 11/73/12 9/74/12 17/75/12 27/76/12
f 16/77/13 13/78/13 21/79/13 25/80/13
f 14/81/14 16/82/14 25/83/14 28/84/14
f 12/85/15 11/86/15 27/87/15 26/88/15
f 20/89/3 24/90/3 25/91/3 26/92/3
f 19/93/3 20/94/3 26/95/3 27/96/3
f 22/97/3 19/98/3 27/99/3 28/100/3
f 24/101/3 22/102/3 28/103/3 25/104/3
f 32/105/16 29/106/16 30/107/16 31/108/16
f 36/109/17 35/110/17 31/111/17 30/112/17
f 35/113/18 34/114/18 32/115/18 31/116/18
f 33/117/19 36/118/19 30/119/19 29/120/19
f 24/121/20 20/122/20 36/123/20 33/124/20
f 19/125/21 22/126/21 34/127/21 35/128/21
f 20/129/22 19/130/22 35/131/22 36/132/22
f 22/133/23 24/134/23 33/135/23 34/136/23
