# Blender v3.0.1 OBJ File: 'shovel.blend'
# www.blender.org
mtllib shovel_placed.mtl
o Cube.001
v 0.368499 -0.478601 -0.426303
v 0.368499 -0.405493 -0.426303
v 0.419648 -0.478601 -0.376723
v 0.419648 -0.405493 -0.376723
v -0.189503 -0.476522 0.152275
v -0.189503 -0.407573 0.152275
v -0.141263 -0.476522 0.199035
v -0.141263 -0.407573 0.199035
v -0.183351 -0.405493 0.245366
v -0.183351 -0.478601 0.245366
v -0.234501 -0.478601 0.195786
v -0.234501 -0.405493 0.195786
v -0.132946 -0.394775 0.208766
v -0.132946 -0.489320 0.208766
v -0.199488 -0.489320 0.144265
v -0.199488 -0.394775 0.144265
v -0.175655 -0.394775 0.252826
v -0.175655 -0.489320 0.252826
v -0.242197 -0.489320 0.188326
v -0.242197 -0.394775 0.188326
v -0.143466 -0.436184 0.363459
v -0.143466 -0.447911 0.363459
v -0.353779 -0.447911 0.159600
v -0.353779 -0.436184 0.159600
v -0.286870 -0.436184 0.511404
v -0.286870 -0.447911 0.511404
v -0.497184 -0.447911 0.307544
v -0.497184 -0.436184 0.307544
v 0.471099 -0.421672 -0.296641
v 0.471099 -0.462423 -0.296641
v 0.321994 -0.476522 -0.375415
v 0.286853 -0.462423 -0.475234
v -0.208926 -0.478601 0.220576
v -0.208926 -0.431790 0.220576
v 0.321994 -0.407573 -0.375415
v 0.286853 -0.421672 -0.475234
v 0.370234 -0.476522 -0.328655
v 0.370234 -0.407573 -0.328655
v -0.248622 -0.474207 0.261529
v -0.248622 -0.462481 0.261529
v -0.474821 -0.468344 0.494889
v 0.453236 -0.462423 -0.278212
v 0.453236 -0.421672 -0.278212
v 0.268990 -0.421672 -0.456805
v 0.268990 -0.462423 -0.456805
vt 0.465678 0.849347
vt 0.407282 0.849347
vt 0.396205 0.838174
vt 0.476756 0.838174
vt 0.686620 0.061503
vt 0.686620 0.121434
vt 0.047840 0.121435
vt 0.047840 0.061503
vt 0.179692 0.248605
vt 0.179692 0.308536
vt 0.095268 0.310344
vt 0.095268 0.246798
vt 0.481715 0.884841
vt 0.481715 0.965392
vt 0.428379 0.965392
vt 0.428379 0.884841
vt 0.190456 0.398742
vt 0.239707 0.399843
vt 0.307535 0.501134
vt 0.168633 0.467426
vt 0.555094 0.902222
vt 0.491549 0.902222
vt 0.482232 0.892905
vt 0.564411 0.892905
vt 0.467259 0.884324
vt 0.407329 0.884324
vt 0.396205 0.873197
vt 0.478383 0.873197
vt 0.465678 0.861037
vt 0.407282 0.861037
vt 0.396205 0.849864
vt 0.476756 0.849864
vt 0.564928 0.902739
vt 0.645479 0.902739
vt 0.645479 0.956076
vt 0.564928 0.956076
vt 0.564411 0.965392
vt 0.482232 0.965392
vt 0.482232 0.912056
vt 0.564411 0.912056
vt 0.482232 0.839569
vt 0.564411 0.839569
vt 0.467259 0.872680
vt 0.407329 0.872680
vt 0.396205 0.861554
vt 0.478383 0.861554
vt 0.419062 0.956076
vt 0.396205 0.925117
vt 0.419062 0.894158
vt 0.636163 0.965392
vt 0.605204 0.965392
vt 0.574245 0.965392
vt 0.491549 0.902739
vt 0.555094 0.902739
vt 0.276196 0.648852
vt 0.168633 0.762405
vt 0.025471 0.376038
vt 0.086908 0.398737
vt 0.022567 0.491994
vt 0.012562 0.490315
vt 0.317432 0.376038
vt 0.318352 0.500919
vt 0.511090 0.438091
vt 0.542045 0.437558
vt 0.641275 0.488581
vt 0.511946 0.487805
vt 0.284129 0.654051
vt 0.045826 0.645485
vt 0.036399 0.650775
vt 0.640201 0.667668
vt 0.511090 0.770338
vt 0.380389 0.488581
vt 0.509717 0.487805
vt 0.510573 0.770338
vt 0.381463 0.667668
vt 0.158273 0.773717
vt 0.479619 0.437558
vt 0.510573 0.438091
vt 0.158273 0.463668
vt 0.818470 0.248606
vt 0.818470 0.308536
vt 0.129103 0.123758
vt 0.129103 0.187304
vt 0.047840 0.187304
vt 0.047840 0.123758
vt 0.917169 0.861993
vt 0.917169 0.925539
vt 0.865333 0.925539
vt 0.865333 0.861993
vt 0.135323 0.396589
vt 0.909357 0.204264
vt 0.920049 0.284821
vt 0.868213 0.284832
vt 0.849436 0.202503
vt 0.210655 0.202504
vt 0.210655 0.144108
vt 0.849436 0.144107
vt 0.868213 0.061778
vt 0.920049 0.061790
vt 0.909357 0.142346
vt 0.911468 0.856990
vt 0.911468 0.920535
vt 0.859632 0.920535
vt 0.859632 0.856990
vt 0.191021 0.123758
vt 0.191021 0.187304
vt 0.272284 0.123758
vt 0.272284 0.187304
vt 0.771044 0.059696
vt 0.771044 0.123241
vt 0.044669 0.095739
vt 0.033977 0.015183
vt 0.085813 0.015171
vt 0.104590 0.097500
vt 0.743371 0.097500
vt 0.743371 0.155896
vt 0.104590 0.155896
vt 0.085813 0.238225
vt 0.033977 0.238213
vt 0.044669 0.157657
vn 0.6930 0.0932 -0.7149
vn 0.7180 0.0000 0.6960
vn -0.8380 0.0000 0.5457
vn 0.0000 1.0000 0.0000
vn -0.2737 0.7551 0.5957
vn -0.6960 0.0000 0.7180
vn 0.7602 0.0000 -0.6497
vn 0.6930 -0.0932 -0.7149
vn 0.0000 -1.0000 0.0000
vn -0.7180 0.0000 -0.6960
vn 0.6257 0.0000 -0.7800
vn 0.1299 0.9814 0.1410
vn 0.9474 0.0000 -0.3200
vn 0.2903 0.0000 -0.9569
vn -0.0124 -0.9764 0.2154
vn -0.9930 0.0000 0.1185
vn 0.1086 -0.9868 0.1205
vn -0.1238 -0.9868 -0.1048
vn -0.0875 0.0000 0.9962
vn -0.2149 -0.9764 0.0191
vn -0.1450 0.9814 -0.1255
vn 0.8413 0.0000 -0.5405
vn -0.5869 0.7551 0.2921
vn -0.0041 -1.0000 0.0042
vn 0.6960 0.0000 -0.7180
vn 0.5141 0.0000 -0.8578
vn -0.5193 0.0000 0.8546
vn -0.0041 1.0000 0.0042
usemtl Material.001
s off
f 8/1/1 6/2/1 16/3/1 13/4/1
f 37/5/2 38/6/2 8/7/2 7/8/2
f 31/9/3 35/10/3 44/11/3 45/12/3
f 13/13/4 16/14/4 20/15/4 17/16/4
f 34/17/5 12/18/5 24/19/5 40/20/5
f 11/21/6 12/22/6 20/23/6 19/24/6
f 7/25/7 8/26/7 13/27/7 14/28/7
f 5/29/8 7/30/8 14/31/8 15/32/8
f 15/33/9 14/34/9 18/35/9 19/36/9
f 14/37/2 13/38/2 17/39/2 18/40/2
f 16/41/10 15/42/10 19/24/10 20/23/10
f 6/43/11 5/44/11 15/45/11 16/46/11
f 12/47/6 34/48/6 9/49/6 17/16/6 20/15/6
f 10/50/6 33/51/6 11/52/6 19/36/6 18/35/6
f 9/53/6 10/54/6 18/40/6 17/39/6
f 40/20/12 24/19/12 28/55/12 41/56/12
f 10/57/13 9/58/13 21/59/13 22/60/13
f 12/18/14 11/61/14 23/62/14 24/19/14
f 33/63/15 10/64/15 22/65/15 39/66/15
f 41/56/16 28/55/16 27/67/16
f 22/60/2 21/59/2 25/68/2 26/69/2
f 24/19/10 23/62/10 27/67/10 28/55/10
f 39/66/17 22/65/17 26/70/17 41/71/17
f 23/72/18 39/73/18 41/74/18 27/75/18
f 26/69/19 25/68/19 41/76/19
f 11/77/20 33/78/20 39/73/20 23/72/20
f 21/59/21 40/79/21 41/76/21 25/68/21
f 5/80/10 6/81/10 35/10/10 31/9/10
f 3/82/22 4/83/22 29/84/22 30/85/22
f 45/86/10 44/87/10 36/88/10 32/89/10
f 9/58/23 34/90/23 40/79/23 21/59/23
f 3/91/24 30/92/24 42/93/24 37/94/24 7/95/24 5/96/24 31/97/24 45/98/24 32/99/24 1/100/24
f 30/101/2 29/102/2 43/103/2 42/104/2
f 1/105/25 2/106/25 4/83/25 3/82/25
f 2/106/26 1/105/26 32/107/26 36/108/26
f 38/6/27 37/5/27 42/109/27 43/110/27
f 2/111/28 36/112/28 44/113/28 35/114/28 6/115/28 8/116/28 38/117/28 43/118/28 29/119/28 4/120/28
