(C) lord_of_the_dumpster, TPH - CC-BY-SA-4.0
v 0.202191 0.30542499999999995 -0.202191
v 0.202191 0.30542499999999995 0.202191
v 0.202191 0.43704 0.202191
v 0.202191 0.43704 -0.202191
v -0.3125 -0.49375 -0.3125
v -0.3125 -0.49375 0.3125
v 0.3125 -0.49375 0.3125
v 0.3125 -0.49375 -0.3125
v -0.3125 0.30542499999999995 -0.3125
v -0.3125 0.30542499999999995 0.3125
v -0.202191 0.30542499999999995 -0.202191
v -0.202191 0.43704 -0.202191
v -0.202191 0.30542499999999995 0.202191
v -0.202191 0.43704 0.202191
v 0.3125 0.30542499999999995 0.3125
v 0.153211 0.50625 0.153211
v -0.153211 0.50625 0.153211
v -0.153211 0.25112899999999994 0.153211
v 0.153211 0.25112899999999994 0.153211
v 0.265625 0.43704 -0.265625
v 0.265625 0.43704 0.265625
v 0.265625 0.50625 0.265625
v 0.265625 0.50625 -0.265625
v -0.265625 0.43704 -0.265625
v -0.265625 0.50625 -0.265625
v -0.265625 0.43704 0.265625
v -0.265625 0.50625 0.265625
v 0.3125 0.30542499999999995 -0.3125
v 0.153211 0.50625 -0.153211
v -0.153211 0.50625 -0.153211
v -0.153211 0.25112899999999994 -0.153211
v -0.254166 0.25112899999999994 -0.254166
v -0.254166 0.25112899999999994 0.254166
v 0.153211 0.25112899999999994 -0.153211
v 0.254166 0.25112899999999994 0.254166
v -0.254166 -0.432858 0.254166
v 0.254166 -0.432858 0.254166
v 0.254166 0.25112899999999994 -0.254166
v -0.254166 -0.432858 -0.254165
v 0.254166 -0.432858 -0.254165
vt 0.265625 0.859375
vt 0.171875 0.859375
vt 0.171875 0.828125
vt 0.265625 0.828125
vt 0 0.609375
vt 0 0.453125
vt 0.15625 0.453125
vt 0.15625 0.609375
vt 0 0.609375
vt 0.15625 0.609375
vt 0.15625 0.8125
vt 0 0.8125
vt 0.359375 0.859375
vt 0.265625 0.859375
vt 0.265625 0.828125
vt 0.359375 0.828125
vt 0.359375 0.859375
vt 0.265625 0.859375
vt 0.265625 0.828125
vt 0.359375 0.828125
vt 0.15625 0.609375
vt 0.3125 0.609375
vt 0.3125 0.8125
vt 0.15625 0.8125
vt 0.40625 0.59375
vt 0.484375 0.59375
vt 0.484375 0.65625
vt 0.40625 0.65625
vt 0.265625 0.859375
vt 0.171875 0.859375
vt 0.171875 0.828125
vt 0.265625 0.828125
vt 0.3125 0.4453125
vt 0.171875 0.4453125
vt 0.171875 0.4296875
vt 0.3125 0.4296875
vt 0.453125 0.4453125
vt 0.3125 0.4453125
vt 0.3125 0.4296875
vt 0.453125 0.4296875
vt 0.453125 0.4453125
vt 0.3125 0.4453125
vt 0.3125 0.4296875
vt 0.453125 0.4296875
vt 0.3125 0.4453125
vt 0.171875 0.4453125
vt 0.171875 0.4296875
vt 0.3125 0.4296875
vt 0.15625 0.609375
vt 0.3125 0.609375
vt 0.3125 0.8125
vt 0.15625 0.8125
vt 0 0.609375
vt 0.15625 0.609375
vt 0.15625 0.8125
vt 0 0.8125
vt 0.35179531249999996 0.6877328125
vt 0.35179531249999996 0.7888296875
vt 0.3359375 0.8046875
vt 0.3359375 0.671875
vt 0.35179531249999996 0.7888296875
vt 0.45289218750000004 0.7888296875
vt 0.46875 0.8046875
vt 0.3359375 0.8046875
vt 0.45289218750000004 0.6877328125
vt 0.35179531249999996 0.6877328125
vt 0.3359375 0.671875
vt 0.46875 0.671875
vt 0.45289218750000004 0.7888296875
vt 0.45289218750000004 0.6877328125
vt 0.46875 0.671875
vt 0.46875 0.8046875
vt 0.027576562499999957 0.8713265625
vt 0.027576562499999957 0.9724234375
vt 0 1
vt 0 0.84375
vt 0.027576562499999957 0.9724234375
vt 0.12867343749999993 0.9724234375
vt 0.15625 1
vt 0 1
vt 0.12867343749999993 0.8713265625
vt 0.027576562499999957 0.8713265625
vt 0 0.84375
vt 0.15625 0.84375
vt 0.12867343750000004 0.9724234375
vt 0.12867343749999993 0.8713265625
vt 0.15625 0.84375
vt 0.15625 1
vt 0.276584375 0.565646875
vt 0.276584375 0.489040625
vt 0.3046875 0.4609375
vt 0.3046875 0.59375
vt 0.276584375 0.489040625
vt 0.199978125 0.489040625
vt 0.171875 0.4609375
vt 0.3046875 0.4609375
vt 0.199978125 0.565646875
vt 0.276584375 0.565646875
vt 0.3046875 0.59375
vt 0.171875 0.59375
vt 0.199978125 0.489040625
vt 0.199978125 0.565646875
vt 0.171875 0.59375
vt 0.171875 0.4609375
vt 0.192165625 0.8981546874999999
vt 0.192165625 0.9747609375
vt 0.1669265625 1
vt 0.1669265625 0.872915625
vt 0.328125 0.59375
vt 0.40625 0.59375
vt 0.40625 0.65625
vt 0.328125 0.65625
vt 0.328125 0.59375
vt 0.40625 0.59375
vt 0.40625 0.65625
vt 0.328125 0.65625
vt 0.40625 0.59375
vt 0.484375 0.59375
vt 0.484375 0.65625
vt 0.40625 0.65625
vt 0.125 0.21875
vt 0.25 0.21875
vt 0.25 0.390625
vt 0.125 0.390625
vt 0.192165625 0.9747609375
vt 0.268771875 0.9747609375
vt 0.2940109375 1
vt 0.1669265625 1
vt 0.268771875 0.8981546874999999
vt 0.192165625 0.8981546874999999
vt 0.1669265625 0.872915625
vt 0.2940109375 0.872915625
vt 0.268771875 0.9747609375
vt 0.268771875 0.8981546874999999
vt 0.29401093749999996 0.872915625
vt 0.29401093749999996 1
vt 0.125 0.21875
vt 0 0.21875
vt 0 0.09375
vt 0.125 0.09375
vt 0 0.21875
vt 0.125 0.21875
vt 0.125 0.390625
vt 0 0.390625
vt 0 0.21875
vt 0.125 0.21875
vt 0.125 0.390625
vt 0 0.390625
vt 0.125 0.21875
vt 0.25 0.21875
vt 0.25 0.390625
vt 0.125 0.390625
vn -1 0 0
vn 0 1 0
vn 1 0 0
vn 0 0 1
vn 0 0 -1
vn 0 0 -1
vn 0 0 1
vn 1 0 0
vn -1 0 0
vn 0 0 1
vn 0 0 -1
vn 1 0 0
vn 0 0 1
vn -1 0 0
vn 0 1 0
vn 0 1 0
vn 0 1 0
vn 0 1 0
vn 0 -1 0
vn 0 -1 0
vn 0 -1 0
vn 0 -1 0
vn 0 -1 0
vn 0 -1 0
vn 0 -1 0
vn 0 -1 0
vn 0 1 0
vn 1 0 0
vn -1 0 0
vn 0 0 -1
vn 0 0 1
vn 0 1 0
vn 0 1 0
vn 0 1 0
vn 0 -1 0
vn 1 0 0
vn -1 0 0
vn 0 -0.000001462016090989576 -0.9999999999989313
f 1/1/1 2/2/1 3/3/1 4/4/1
f 5/5/2 6/6/2 7/7/2 8/8/2
f 6/9/3 5/10/3 9/11/3 10/12/3
f 11/13/4 1/14/4 4/15/4 12/16/4
f 2/17/5 13/18/5 14/19/5 3/20/5
f 7/21/6 6/22/6 10/23/6 15/24/6
f 16/25/7 17/26/7 18/27/7 19/28/7
f 13/29/8 11/30/8 12/31/8 14/32/8
f 20/33/9 21/34/9 22/35/9 23/36/9
f 24/37/10 20/38/10 23/39/10 25/40/10
f 21/41/11 26/42/11 27/43/11 22/44/11
f 26/45/12 24/46/12 25/47/12 27/48/12
f 5/49/13 8/50/13 28/51/13 9/52/13
f 8/53/14 7/54/14 15/55/14 28/56/14
f 14/57/15 12/58/15 24/59/15 26/60/15
f 12/61/16 4/62/16 20/63/16 24/64/16
f 3/65/17 14/66/17 26/67/17 21/68/17
f 4/69/18 3/70/18 21/71/18 20/72/18
f 11/73/19 13/74/19 10/75/19 9/76/19
f 13/77/20 2/78/20 15/79/20 10/80/20
f 1/81/21 11/82/21 9/83/21 28/84/21
f 2/85/22 1/86/22 28/87/22 15/88/22
f 16/89/23 29/90/23 23/91/23 22/92/23
f 29/93/24 30/94/24 25/95/24 23/96/24
f 17/97/25 16/98/25 22/99/25 27/100/25
f 30/101/26 17/102/26 27/103/26 25/104/26
f 18/105/27 31/106/27 32/107/27 33/108/27
f 29/109/28 16/110/28 19/111/28 34/112/28
f 17/113/29 30/114/29 31/115/29 18/116/29
f 30/117/30 29/118/30 34/119/30 31/120/30
f 35/121/31 33/122/31 36/123/31 37/124/31
f 31/125/32 34/126/32 38/127/32 32/128/32
f 19/129/33 18/130/33 33/131/33 35/132/33
f 34/133/34 19/134/34 35/135/34 38/136/34
f 37/137/35 36/138/35 39/139/35 40/140/35
f 38/141/36 35/142/36 37/143/36 40/144/36
f 33/145/37 32/146/37 39/147/37 36/148/37
f 32/149/38 38/150/38 40/151/38 39/152/38