# Made in Blockbench 4.10.4
mtllib materials.mtl

o cube.015
v 0.202191 0.305425 -0.202191
v 0.202191 0.305425 0.202191
v 0.202191 0.43704 0.202191
v 0.202191 0.43704 -0.202191
v -0.3125 -0.49375 -0.3125
v -0.3125 -0.49375 0.3125
v 0.3125 -0.49375 0.3125
v 0.3125 -0.49375 -0.3125
v -0.3125 0.305425 -0.3125
v -0.3125 0.305425 0.3125
v -0.202191 0.305425 -0.202191
v -0.202191 0.43704 -0.202191
v -0.202191 0.305425 0.202191
v -0.202191 0.43704 0.202191
v 0.3125 0.305425 0.3125
v 0.153211 0.50625 0.153211
v -0.153211 0.50625 0.153211
v -0.153211 0.251129 0.153211
v 0.153211 0.251129 0.153211
v 0.265625 0.43704 -0.265625
v 0.265625 0.43704 0.265625
v 0.265625 0.50625 0.265625
v 0.265625 0.50625 -0.265625
v -0.265625 0.43704 -0.265625
v -0.265625 0.50625 -0.265625
v -0.265625 0.43704 0.265625
v -0.265625 0.50625 0.265625
v 0.3125 0.305425 -0.3125
v 0.153211 0.50625 -0.153211
v -0.153211 0.50625 -0.153211
v -0.153211 0.251129 -0.153211
v -0.254166 0.251129 -0.254166
v -0.254166 0.251129 0.254166
v 0.153211 0.251129 -0.153211
v 0.254166 0.251129 0.254166
v -0.254166 -0.432858 0.254166
v 0.254166 -0.432858 0.254166
v 0.254166 0.251129 -0.254166
v -0.254166 -0.432858 -0.254165
v 0.254166 -0.432858 -0.254165
v 0.25 -0.4375 -0.25
v -0.25 -0.4375 -0.25
v -0.25 0.1875 -0.25
v 0.25 0.1875 -0.25
v 0.25 -0.4375 0.25
v 0.25 0.1875 0.25
v -0.25 -0.4375 0.25
v -0.25 0.1875 0.25
vt 0.265625 0.859375
vt 0.171875 0.859375
vt 0.171875 0.828125
vt 0.265625 0.828125
vt 0 0.609375
vt 0 0.453125
vt 0.15625 0.453125
vt 0.15625 0.609375
vt 0 0.609375
vt 0.15625 0.609375
vt 0.15625 0.8125
vt 0 0.8125
vt 0.359375 0.859375
vt 0.265625 0.859375
vt 0.265625 0.828125
vt 0.359375 0.828125
vt 0.359375 0.859375
vt 0.265625 0.859375
vt 0.265625 0.828125
vt 0.359375 0.828125
vt 0.15625 0.609375
vt 0.3125 0.609375
vt 0.3125 0.8125
vt 0.15625 0.8125
vt 0.40625 0.59375
vt 0.484375 0.59375
vt 0.484375 0.65625
vt 0.40625 0.65625
vt 0.265625 0.859375
vt 0.171875 0.859375
vt 0.171875 0.828125
vt 0.265625 0.828125
vt 0.3125 0.44531199999999993
vt 0.171875 0.44531199999999993
vt 0.171875 0.42968800000000007
vt 0.3125 0.42968800000000007
vt 0.453125 0.44531199999999993
vt 0.3125 0.44531199999999993
vt 0.3125 0.42968800000000007
vt 0.453125 0.42968800000000007
vt 0.453125 0.44531199999999993
vt 0.3125 0.44531199999999993
vt 0.3125 0.42968800000000007
vt 0.453125 0.42968800000000007
vt 0.3125 0.44531199999999993
vt 0.171875 0.44531199999999993
vt 0.171875 0.42968800000000007
vt 0.3125 0.42968800000000007
vt 0.15625 0.609375
vt 0.3125 0.609375
vt 0.3125 0.8125
vt 0.15625 0.8125
vt 0 0.609375
vt 0.15625 0.609375
vt 0.15625 0.8125
vt 0 0.8125
vt 0.351795 0.687733
vt 0.351795 0.78883
vt 0.335938 0.804688
vt 0.335938 0.671875
vt 0.351795 0.78883
vt 0.452892 0.78883
vt 0.46875 0.804688
vt 0.335938 0.804688
vt 0.452892 0.687733
vt 0.351795 0.687733
vt 0.335938 0.671875
vt 0.46875 0.671875
vt 0.452892 0.78883
vt 0.452892 0.687733
vt 0.46875 0.671875
vt 0.46875 0.804688
vt 0.027577 0.871327
vt 0.027577 0.972423
vt 0 1
vt 0 0.84375
vt 0.027577 0.972423
vt 0.128673 0.972423
vt 0.15625 1
vt 0 1
vt 0.128673 0.871327
vt 0.027577 0.871327
vt 0 0.84375
vt 0.15625 0.84375
vt 0.128673 0.972423
vt 0.128673 0.871327
vt 0.15625 0.84375
vt 0.15625 1
vt 0.276584 0.565647
vt 0.276584 0.48904100000000006
vt 0.304688 0.46093800000000007
vt 0.304688 0.59375
vt 0.276584 0.48904100000000006
vt 0.199978 0.48904100000000006
vt 0.171875 0.46093800000000007
vt 0.304688 0.46093800000000007
vt 0.199978 0.565647
vt 0.276584 0.565647
vt 0.304688 0.59375
vt 0.171875 0.59375
vt 0.199978 0.48904100000000006
vt 0.199978 0.565647
vt 0.171875 0.59375
vt 0.171875 0.46093800000000007
vt 0.192166 0.898155
vt 0.192166 0.974761
vt 0.166927 1
vt 0.166927 0.872916
vt 0.328125 0.59375
vt 0.40625 0.59375
vt 0.40625 0.65625
vt 0.328125 0.65625
vt 0.328125 0.59375
vt 0.40625 0.59375
vt 0.40625 0.65625
vt 0.328125 0.65625
vt 0.40625 0.59375
vt 0.484375 0.59375
vt 0.484375 0.65625
vt 0.40625 0.65625
vt 0.125 0.21875
vt 0.25 0.21875
vt 0.25 0.390625
vt 0.125 0.390625
vt 0.192166 0.974761
vt 0.268772 0.974761
vt 0.294011 1
vt 0.166927 1
vt 0.268772 0.898155
vt 0.192166 0.898155
vt 0.166927 0.872916
vt 0.294011 0.872916
vt 0.268772 0.974761
vt 0.268772 0.898155
vt 0.294011 0.872916
vt 0.294011 1
vt 0.125 0.21875
vt 0 0.21875
vt 0 0.09375
vt 0.125 0.09375
vt 0 0.21875
vt 0.125 0.21875
vt 0.125 0.390625
vt 0 0.390625
vt 0 0.21875
vt 0.125 0.21875
vt 0.125 0.390625
vt 0 0.390625
vt 0.125 0.21875
vt 0.25 0.21875
vt 0.25 0.390625
vt 0.125 0.390625
vt 0.78125 0.2890625
vt 0.90625 0.2890625
vt 0.90625 0.4453125
vt 0.78125 0.4453125
vt 0.65625 0.2890625
vt 0.78125 0.2890625
vt 0.78125 0.4453125
vt 0.65625 0.4453125
vt 0.90625 0.2890625
vt 0.78125 0.2890625
vt 0.78125 0.4453125
vt 0.90625 0.4453125
vt 0.78125 0.2890625
vt 0.65625 0.2890625
vt 0.65625 0.4453125
vt 0.78125 0.4453125
vt 0.71875 0.4453125
vt 0.84375 0.4453125
vt 0.84375 0.5703125
vt 0.71875 0.5703125
vt 0.71875 0.1640625
vt 0.84375 0.1640625
vt 0.84375 0.2890625
vt 0.71875 0.2890625
vn -1 0 0
vn 0 1 0
vn 1 0 0
vn 0 0 1
vn 0 0 -1
vn 0 0 -1
vn 0 0 1
vn 1 0 0
vn -1 0 0
vn 0 0 1
vn 0 0 -1
vn 1 0 0
vn 0 0 1
vn -1 0 0
vn 0 1 0
vn 0 1 0
vn 0 1 0
vn 0 1 0
vn 0 -1 0
vn 0 -1 0
vn 0 -1 0
vn 0 -1 0
vn 0 -1 0
vn 0 -1 0
vn 0 -1 0
vn 0 -1 0
vn 0 1 0
vn 1 0 0
vn -1 0 0
vn 0 0 -1
vn 0 0 1
vn 0 1 0
vn 0 1 0
vn 0 1 0
vn 0 -1 0
vn 1 0 0
vn -1 0 0
vn 0 -0.0000014620160909895757 -0.9999999999989313
vn 0 0 -1
vn 1 0 0
vn 0 0 1
vn -1 0 0
vn 0 1 0
vn 0 -1 0
usemtl m_7dcb017a-8352-78dd-4d36-d26e8a53e663
f 1/1/1 2/2/1 3/3/1 4/4/1
f 5/5/2 6/6/2 7/7/2 8/8/2
f 6/9/3 5/10/3 9/11/3 10/12/3
f 11/13/4 1/14/4 4/15/4 12/16/4
f 2/17/5 13/18/5 14/19/5 3/20/5
f 7/21/6 6/22/6 10/23/6 15/24/6
f 16/25/7 17/26/7 18/27/7 19/28/7
f 13/29/8 11/30/8 12/31/8 14/32/8
f 20/33/9 21/34/9 22/35/9 23/36/9
f 24/37/10 20/38/10 23/39/10 25/40/10
f 21/41/11 26/42/11 27/43/11 22/44/11
f 26/45/12 24/46/12 25/47/12 27/48/12
f 5/49/13 8/50/13 28/51/13 9/52/13
f 8/53/14 7/54/14 15/55/14 28/56/14
f 14/57/15 12/58/15 24/59/15 26/60/15
f 12/61/16 4/62/16 20/63/16 24/64/16
f 3/65/17 14/66/17 26/67/17 21/68/17
f 4/69/18 3/70/18 21/71/18 20/72/18
f 11/73/19 13/74/19 10/75/19 9/76/19
f 13/77/20 2/78/20 15/79/20 10/80/20
f 1/81/21 11/82/21 9/83/21 28/84/21
f 2/85/22 1/86/22 28/87/22 15/88/22
f 16/89/23 29/90/23 23/91/23 22/92/23
f 29/93/24 30/94/24 25/95/24 23/96/24
f 17/97/25 16/98/25 22/99/25 27/100/25
f 30/101/26 17/102/26 27/103/26 25/104/26
f 18/105/27 31/106/27 32/107/27 33/108/27
f 29/109/28 16/110/28 19/111/28 34/112/28
f 17/113/29 30/114/29 31/115/29 18/116/29
f 30/117/30 29/118/30 34/119/30 31/120/30
f 35/121/31 33/122/31 36/123/31 37/124/31
f 31/125/32 34/126/32 38/127/32 32/128/32
f 19/129/33 18/130/33 33/131/33 35/132/33
f 34/133/34 19/134/34 35/135/34 38/136/34
f 37/137/35 36/138/35 39/139/35 40/140/35
f 38/141/36 35/142/36 37/143/36 40/144/36
f 33/145/37 32/146/37 39/147/37 36/148/37
f 32/149/38 38/150/38 40/151/38 39/152/38
f 41/153/39 42/154/39 43/155/39 44/156/39
f 45/157/40 41/158/40 44/159/40 46/160/40
f 47/161/41 45/162/41 46/163/41 48/164/41
f 42/165/42 47/166/42 48/167/42 43/168/42
f 48/169/43 46/170/43 44/171/43 43/172/43
f 42/173/44 41/174/44 45/175/44 47/176/44