# (C) TPH -- CC0
o cube
v -0.1875 -0.5 0.1875
v -0.1875 -0.4375 0.1875
v -0.1875 -0.4375 0.0625
v -0.1875 -0.5 0.0625
v 0.1875 -0.5 0.1875
v 0.1875 -0.4375 0.1875
v 0.1875 -0.5 0.0625
v 0.1875 -0.4375 0.0625
v 0.0625 -0.4375 0.0625
v 0.0625 -0.5 0.0625
v -0.0625 -0.5 0.0625
v -0.0625 -0.4375 0.0625
v 0.0625 -0.5 -0.0625
v 0.0625 -0.375 -0.0625
v 0.0625 -0.375 0.0625
v 0.0625 -0.5 0.0625
v -0.0625 -0.5 0.0625
v -0.0625 -0.375 0.0625
v -0.0625 -0.375 -0.0625
v -0.0625 -0.5 -0.0625
v -0.1875 -0.5 -0.0625
v -0.1875 -0.4375 -0.0625
v -0.1875 -0.4375 -0.1875
v -0.1875 -0.5 -0.1875
v 0.1875 -0.5 -0.1875
v 0.1875 -0.5 -0.0625
v 0.1875 -0.4375 -0.1875
v 0.1875 -0.4375 -0.0625
v -0.0625 -0.4375 -0.0625
v -0.0625 -0.5 -0.0625
v 0.0625 -0.5 -0.0625
v 0.0625 -0.4375 -0.0625
v -0.0625 -0.5 -0.0625
v -0.0625 -0.4375 -0.0625
v -0.0625 -0.4375 0.0625
v -0.0625 -0.5 0.0625
v -0.1875 -0.5 0.0625
v -0.1875 -0.4375 0.0625
v -0.1875 -0.4375 -0.0625
v -0.1875 -0.5 -0.0625
v 0.0625 -0.5 0.0625
v 0.0625 -0.4375 0.0625
v 0.0625 -0.4375 -0.0625
v 0.0625 -0.5 -0.0625
v 0.1875 -0.4375 0.0625
v 0.1875 -0.4375 -0.0625
v 0.1875 -0.5 -0.0625
v 0.1875 -0.5 0.0625
vt 0.5 0.9375
vt 0.4375 0.9375
vt 0.4375 0.8125
vt 0.5 0.8125
vt 0.0625 0.9375
vt 0.0625 0.875
vt 0.4375 0.875
vt 0.4375 0.9375
vt 0.5625 0.4375
vt 0.5625 0.3125
vt 0.9375 0.3125
vt 0.9375 0.4375
vt 0.5625 0.9375
vt 0.5625 0.8125
vt 0.9375 0.8125
vt 0.9375 0.9375
vt 0.3125 0.625
vt 0.3125 0.6875
vt 0.1875 0.6875
vt 0.1875 0.625
vt 0.125 0.25
vt 0.125 0.375
vt 0 0.375
vt 0 0.25
vt 0.375 0.25
vt 0.375 0.375
vt 0.25 0.375
vt 0.25 0.25
vt 0.125 0.375
vt 0.125 0.25
vt 0.25 0.25
vt 0.25 0.375
vt 0.125 0.125
vt 0.125 0
vt 0.25 0
vt 0.25 0.125
vt 0.25 0.375
vt 0.25 0.5
vt 0.125 0.5
vt 0.125 0.375
vt 0.125 0.25
vt 0.125 0.125
vt 0.25 0.125
vt 0.25 0.25
vt 0.5 0.6875
vt 0.4375 0.6875
vt 0.4375 0.5625
vt 0.5 0.5625
vt 0.5625 0.1875
vt 0.5625 0.0625
vt 0.9375 0.0625
vt 0.9375 0.1875
vt 0.0625 0.625
vt 0.0625 0.5625
vt 0.4375 0.5625
vt 0.4375 0.625
vt 0.5625 0.6875
vt 0.5625 0.5625
vt 0.9375 0.5625
vt 0.9375 0.6875
vt 0.3125 0.8125
vt 0.3125 0.875
vt 0.1875 0.875
vt 0.1875 0.8125
vt 0.125 0.8125
vt 0.0625 0.8125
vt 0.0625 0.6875
vt 0.125 0.6875
vt 0.5 0.8125
vt 0.4375 0.8125
vt 0.4375 0.6875
vt 0.5 0.6875
vt 0.8125 0.8125
vt 0.8125 0.6875
vt 0.9375 0.6875
vt 0.9375 0.8125
vt 0.8125 0.3125
vt 0.8125 0.1875
vt 0.9375 0.1875
vt 0.9375 0.3125
vt 0.4375 0.8125
vt 0.375 0.8125
vt 0.375 0.6875
vt 0.4375 0.6875
vt 0.5625 0.8125
vt 0.5625 0.6875
vt 0.6875 0.6875
vt 0.6875 0.8125
vt 0.5625 0.3125
vt 0.5625 0.1875
vt 0.6875 0.1875
vt 0.6875 0.3125
vt 0.0625 0.8125
vt 0 0.8125
vt 0 0.6875
vt 0.0625 0.6875
vt 0 0.8125
vt 0.0625 0.8125
vt 0.0625 0.9375
vt 0 0.9375
vt 0.0625 0.5625
vt 0.0625 0.6875
vt 0 0.6875
vt 0 0.5625
vn -1 0 0
vn 0 0 1
vn 0 -1 0
vn 0 1 0
vn 0 0 -1
vn 1 0 0
vn -1 0 0
vn 0 1 0
vn 0 -1 0
vn 0 0 1
vn 0 0 -1
vn -1 0 0
vn 0 -1 0
vn 0 0 -1
vn 0 1 0
vn 0 0 1
vn 1 0 0
vn -1 0 0
vn 0 1 0
vn 0 -1 0
vn -1 0 0
vn 0 1 0
vn 0 -1 0
vn 1 0 0
vn 1 0 0
vn 1 0 0

f 1/1/1 2/2/1 3/3/1 4/4/1
f 5/5/2 6/6/2 2/7/2 1/8/2
f 7/9/3 5/10/3 1/11/3 4/12/3
f 6/13/4 8/14/4 3/15/4 2/16/4
f 9/17/5 10/18/5 11/19/5 12/20/5
f 13/21/6 14/22/6 15/23/6 16/24/6
f 17/25/7 18/26/7 19/27/7 20/28/7
f 15/29/8 14/30/8 19/31/8 18/32/8
f 13/33/9 16/34/9 17/35/9 20/36/9
f 16/37/10 15/38/10 18/39/10 17/40/10
f 20/41/11 19/42/11 14/43/11 13/44/11
f 21/45/12 22/46/12 23/47/12 24/48/12
f 25/49/13 26/50/13 21/51/13 24/52/13
f 24/53/14 23/54/14 27/55/14 25/56/14
f 28/57/15 27/58/15 23/59/15 22/60/15
f 29/61/16 30/62/16 31/63/16 32/64/16
f 33/65/17 34/66/17 35/67/17 36/68/17
f 37/69/18 38/70/18 39/71/18 40/72/18
f 35/73/19 34/74/19 39/75/19 38/76/19
f 33/77/20 36/78/20 37/79/20 40/80/20
f 41/81/21 42/82/21 43/83/21 44/84/21
f 45/85/22 46/86/22 43/87/22 42/88/22
f 47/89/23 48/90/23 41/91/23 44/92/23
f 47/93/24 46/94/24 45/95/24 48/96/24
f 7/97/25 8/98/25 6/99/25 5/100/25
f 25/101/26 27/102/26 28/103/26 26/104/26